<?xml version="1.0" encoding="utf-8"?>
<!-- Generator: Adobe Illustrator 19.2.0, SVG Export Plug-In . SVG Version: 6.00 Build 0)  -->
<svg version="1.1" id="Layer_1" xmlns="http://www.w3.org/2000/svg" xmlns:xlink="http://www.w3.org/1999/xlink" x="0px" y="0px"
	 viewBox="0 0 205 37" style="enable-background:new 0 0 205 37;" xml:space="preserve">
<style type="text/css">
	.st0{display:none;}
	.st1{display:inline;fill:#FFFFFF;}
	.st2{display:inline;fill:none;stroke:#000000;stroke-width:8;stroke-linecap:round;stroke-miterlimit:10;}
	.st3{fill:#353535;}
</style>
<g id="Layer_4" class="st0">
	<path class="st1" d="M170,17.6c-3.7-0.7-6-1.3-7.3-2.7c-1.4-1.4-2-3.6-2.7-7.3c-0.1-0.3-0.3-0.5-0.6-0.5s-0.6,0.2-0.6,0.5
		c-0.7,3.7-1.3,6-2.7,7.3c-1.4,1.4-3.6,2-7.3,2.7c-0.3,0.1-0.5,0.3-0.5,0.6c0,0.3,0.2,0.6,0.5,0.6c3.7,0.7,6,1.3,7.3,2.7
		c1.4,1.4,2,3.6,2.7,7.3c0.1,0.3,0.3,0.5,0.6,0.5s0.6-0.2,0.6-0.5c0.7-3.7,1.3-6,2.7-7.3c1.4-1.4,3.6-2,7.3-2.7
		c0.3-0.1,0.5-0.3,0.5-0.6S170.4,17.7,170,17.6z"/>
</g>
<g id="Layer_2" class="st0">
	<path class="st2" d="M-13.1-45.9c6.7-9.8,10.6-21.7,10.6-34.5c0-33.8-27.4-61.3-61.3-61.3s-61.3,27.4-61.3,61.3
		c0,33.8,27.4,61.3,61.3,61.3c14.6,0,28-5.1,38.6-13.7"/>
</g>
<g>
	<path class="st3" d="M15.8,13.1l-2.7,8.9c-0.4,1.2-0.6,2.1-0.6,2.7c0,0.2,0,0.4,0.1,0.5c0.1,0.2,0.3,0.2,0.5,0.2
		c0.4,0,0.8-0.1,1.2-0.4c0.4-0.3,0.9-0.6,1.3-1c0.4-0.4,0.8-0.8,1.1-1.2c0.3-0.4,0.5-0.8,0.7-1l0.9,0.6c-0.4,0.7-0.8,1.4-1.4,2.1
		c-0.6,0.7-1.2,1.3-1.8,1.8c-0.6,0.5-1.3,0.9-1.9,1.3c-0.6,0.3-1.2,0.5-1.7,0.5c-0.8,0-1.3-0.2-1.6-0.5c-0.3-0.3-0.5-0.9-0.5-1.6
		c0-0.4,0.1-1,0.2-1.8c0.2-0.7,0.4-1.7,0.8-3l2.4-8H10l0.4-1.5h2.8L15,6h3l-1.7,5.6h3.5l-0.5,1.5H15.8z"/>
	<path class="st3" d="M31.3,17.6c0.4-1.1,0.6-2,0.8-2.6c0.2-0.7,0.2-1.2,0.2-1.7c0-0.5-0.1-0.9-0.2-1.1c-0.2-0.2-0.4-0.3-0.8-0.3
		c-0.7,0-1.3,0.3-2,0.8c-0.7,0.5-1.3,1.3-2,2.4c-0.7,1.1-1.4,2.5-2.1,4.2C24.5,21,23.8,23,23,25.4l-0.7,2.2h-2.7l6.4-22.1
		c0.2-0.5,0.3-1,0.4-1.4c0.1-0.4,0.1-0.7,0.1-1c0-0.4-0.2-0.7-0.6-0.9C25.4,2.1,24.6,2,23.5,2l0.2-1.3h6.6l-3.7,12.6l0.1,0.1
		c0.7-1,1.5-1.8,2.4-2.4c0.9-0.6,1.9-0.8,2.9-0.8c1,0,1.8,0.3,2.4,0.9c0.5,0.6,0.8,1.5,0.8,2.6c0,0.7-0.1,1.6-0.3,2.5
		c-0.2,1-0.6,2-1,3.3c-0.4,1.2-0.8,2.1-1,2.8c-0.2,0.7-0.4,1.2-0.5,1.5c-0.1,0.4-0.2,0.6-0.2,0.7c0,0.1,0,0.2,0,0.3
		c0,0.5,0.2,0.7,0.6,0.7c0.4,0,1-0.3,1.6-0.8c0.6-0.5,1.3-1.2,1.9-2.1l0.9,0.7c-0.3,0.6-0.8,1.2-1.3,1.8c-0.5,0.6-1.1,1.1-1.7,1.5
		c-0.6,0.4-1.2,0.8-1.8,1c-0.6,0.2-1.2,0.4-1.7,0.4c-0.6,0-1-0.2-1.3-0.5C29.2,27.2,29,26.7,29,26c0-0.4,0-0.8,0.1-1.2
		c0.1-0.4,0.2-0.9,0.3-1.5c0.2-0.6,0.4-1.4,0.7-2.3C30.5,20.1,30.8,18.9,31.3,17.6z"/>
	<path class="st3" d="M50.2,23.3c-1.9,3.1-4.2,4.7-7,4.7c-1.5,0-2.6-0.5-3.4-1.4c-0.8-0.9-1.2-2.2-1.2-3.9c0-1.5,0.3-3,0.9-4.5
		c0.6-1.5,1.4-2.8,2.4-4.1c1-1.2,2.1-2.2,3.4-2.9c1.2-0.7,2.5-1.1,3.7-1.1c1,0,1.9,0.3,2.6,0.8c0.7,0.5,1,1.2,1,2
		c0,0.8-0.3,1.5-0.8,2.3c-0.6,0.8-1.3,1.6-2.3,2.3c-1,0.7-2.1,1.4-3.4,2c-1.3,0.6-2.7,1-4.1,1.4c0,0.3-0.1,0.6-0.1,0.9
		c0,0.3,0,0.6,0,0.9c0,2.4,0.8,3.5,2.5,3.5c0.8,0,1.6-0.3,2.5-0.9c0.9-0.6,1.7-1.5,2.4-2.6L50.2,23.3z M48.3,11.6
		c-0.6,0-1.1,0.2-1.8,0.7c-0.6,0.4-1.2,1-1.7,1.7c-0.6,0.7-1.1,1.6-1.5,2.5c-0.5,0.9-0.8,1.9-1.1,2.9c1-0.3,2-0.7,2.9-1.1
		c0.9-0.5,1.7-1,2.3-1.5c0.6-0.6,1.1-1.2,1.5-1.8c0.4-0.6,0.6-1.3,0.6-1.9C49.4,12.1,49.1,11.6,48.3,11.6z"/>
	<path class="st3" d="M60.6,11.9c1.2-1.7,3-2.6,5.3-2.6c2.3,0,4.3,0.9,5.9,2.6c1.6,1.7,2.4,4,2.4,6.7c0,2.7-0.8,4.9-2.4,6.7
		c-1.6,1.7-3.5,2.6-5.8,2.6c-2.3,0-4.1-1-5.4-2.9v11.3H55V9.5h5.6V11.9z M67.3,21.9c0.8-0.8,1.2-1.9,1.2-3.3c0-1.4-0.4-2.5-1.2-3.3
		c-0.8-0.8-1.7-1.2-2.8-1.2c-1,0-2,0.4-2.8,1.2c-0.8,0.8-1.2,1.9-1.2,3.3c0,1.4,0.4,2.5,1.2,3.3c0.8,0.8,1.7,1.2,2.8,1.2
		C65.6,23.1,66.5,22.7,67.3,21.9z"/>
	<path class="st3" d="M77.4,27.7V3.6H83v24.1H77.4z"/>
	<path class="st3" d="M88.6,25.3c-1.6-1.7-2.4-4-2.4-6.7c0-2.7,0.8-4.9,2.4-6.7c1.6-1.7,3.6-2.6,5.9-2.6c2.3,0,4.1,0.9,5.3,2.6V9.5
		h5.6v18.2h-5.6V25c-1.3,1.9-3.1,2.9-5.4,2.9C92.1,27.9,90.2,27,88.6,25.3z M98.6,21.9c0.8-0.8,1.2-1.9,1.2-3.3
		c0-1.4-0.4-2.5-1.2-3.3c-0.8-0.8-1.7-1.2-2.8-1.2c-1,0-2,0.4-2.8,1.2c-0.8,0.8-1.2,1.9-1.2,3.3c0,1.4,0.4,2.5,1.2,3.3
		c0.8,0.8,1.7,1.2,2.8,1.2C96.9,23.1,97.8,22.7,98.6,21.9z"/>
	<path class="st3" d="M114.7,27.3l-7.1-17.8h6.3l4,11.9l4.4-11.9h5.8l-11.6,26.8h-5.8L114.7,27.3z"/>
	<g>
		<path class="st3" d="M143.2,5.2c0.2-0.6,0.3-1.1,0.4-1.5c0.1-0.4,0.1-0.7,0.1-0.8c0-0.3-0.2-0.6-0.7-0.7C142.7,2,141.9,2,140.8,2
			l0.4-1.3h6.3l-3.6,13.2c-0.5,1.7-0.8,3.1-1.1,4.3c-0.3,1.2-0.5,2.2-0.7,3c-0.2,0.8-0.3,1.5-0.4,2c-0.1,0.5-0.1,1-0.1,1.3
			c0,0.5,0.1,0.8,0.2,1c0.2,0.2,0.3,0.3,0.6,0.3c0.5,0,1-0.4,1.5-1.2c0.6-0.8,1-1.9,1.5-3.2l1.2,0.3c-0.7,2.1-1.5,3.7-2.4,4.7
			c-0.9,1-1.9,1.5-3,1.5c-0.8,0-1.4-0.2-1.8-0.7c-0.4-0.5-0.6-1.2-0.6-2.1c0-0.2,0-0.5,0.1-0.7c0-0.3,0.1-0.5,0.2-0.7l-0.3-0.1
			c-0.8,1.4-1.8,2.5-3,3.3c-1.2,0.8-2.3,1.2-3.4,1.2c-0.6,0-1.1-0.1-1.6-0.4c-0.5-0.2-0.9-0.6-1.2-1c-0.3-0.4-0.6-1-0.8-1.6
			c-0.2-0.6-0.3-1.3-0.3-2.1c0-0.9,0.1-1.9,0.4-2.9c0.3-1,0.7-2,1.2-2.9c0.5-0.9,1.1-1.8,1.8-2.7c0.7-0.8,1.4-1.6,2.1-2.2
			c0.7-0.6,1.5-1.1,2.3-1.5c0.8-0.4,1.6-0.6,2.3-0.6c0.7,0,1.3,0.1,1.7,0.4c0.4,0.3,0.8,0.7,1.1,1.3L143.2,5.2z M138.8,11.8
			c-0.6,0-1.1,0.2-1.7,0.5c-0.6,0.4-1.1,0.8-1.7,1.4c-0.5,0.6-1,1.3-1.5,2.1c-0.5,0.8-0.9,1.6-1.2,2.4c-0.3,0.8-0.6,1.7-0.8,2.6
			c-0.2,0.9-0.3,1.7-0.3,2.4c0,0.8,0.2,1.4,0.6,1.9c0.4,0.5,0.9,0.7,1.6,0.7c0.5,0,1-0.2,1.5-0.6c0.5-0.4,1-0.9,1.5-1.6
			c0.5-0.7,1-1.4,1.4-2.2c0.4-0.8,0.8-1.7,1.2-2.6c0.3-0.9,0.6-1.7,0.8-2.6c0.2-0.9,0.3-1.6,0.3-2.3c0-0.7-0.1-1.2-0.4-1.6
			S139.3,11.8,138.8,11.8z"/>
		<path class="st3" d="M159.2,23.3c-1.9,3.1-4.2,4.7-7,4.7c-1.5,0-2.6-0.5-3.4-1.4c-0.8-0.9-1.2-2.2-1.2-3.9c0-1.5,0.3-3,0.9-4.5
			c0.6-1.5,1.4-2.8,2.4-4.1c1-1.2,2.1-2.2,3.4-2.9c1.2-0.7,2.5-1.1,3.7-1.1c1,0,1.9,0.3,2.6,0.8c0.7,0.5,1,1.2,1,2
			c0,0.8-0.3,1.5-0.8,2.3c-0.6,0.8-1.3,1.6-2.3,2.3c-1,0.7-2.1,1.4-3.4,2c-1.3,0.6-2.7,1-4.1,1.4c0,0.3-0.1,0.6-0.1,0.9
			c0,0.3,0,0.6,0,0.9c0,2.4,0.8,3.5,2.5,3.5c0.8,0,1.6-0.3,2.5-0.9c0.9-0.6,1.7-1.5,2.4-2.6L159.2,23.3z M157.4,11.6
			c-0.6,0-1.1,0.2-1.8,0.7c-0.6,0.4-1.2,1-1.7,1.7c-0.6,0.7-1.1,1.6-1.5,2.5c-0.5,0.9-0.8,1.9-1.1,2.9c1-0.3,2-0.7,2.9-1.1
			c0.9-0.5,1.7-1,2.3-1.5c0.6-0.6,1.1-1.2,1.5-1.8c0.4-0.6,0.6-1.3,0.6-1.9C158.5,12.1,158.1,11.6,157.4,11.6z"/>
		<path class="st3" d="M162.1,15.5c0.8-0.9,1.7-1.7,2.7-2.5c1-0.7,2-1.3,3.2-1.8l1.5-5.2h2.5l-1.1,4.3c0.3-0.1,0.7-0.1,1-0.2
			c0.3,0,0.7-0.1,1-0.1c1.8,0,3.3,0.5,4.3,1.5c1,1,1.5,2.4,1.5,4.2c0,1.4-0.3,2.8-1,4.1s-1.6,2.4-2.7,3.4c-1.1,1-2.5,1.8-3.9,2.5
			c-1.5,0.7-3,1.1-4.6,1.3l-1.2,4.5c-0.1,0.3-0.2,0.6-0.2,0.8c0,0.2,0,0.4,0,0.6c0,0.5,0.2,0.9,0.7,1.1c0.4,0.2,1.2,0.3,2.4,0.4
			l-0.2,1.3h-9.2l0.2-1.3c0.9,0,1.6-0.1,2-0.3c0.4-0.2,0.7-0.6,0.9-1.2l5.9-20.1c-0.8,0.4-1.6,0.9-2.4,1.5c-0.8,0.6-1.5,1.2-2.1,1.9
			L162.1,15.5z M172.1,11.7c-0.3,0-0.6,0-0.8,0c-0.3,0-0.5,0.1-0.8,0.1l-3.7,13.8c1.1-0.2,2.1-0.6,3.2-1.2c1-0.6,1.9-1.3,2.7-2.2
			c0.8-0.9,1.4-1.8,1.9-2.9c0.5-1.1,0.7-2.2,0.7-3.4c0-1.3-0.3-2.3-0.9-3.1C173.9,12.1,173.1,11.7,172.1,11.7z"/>
		<path class="st3" d="M187.2,13.1l-2.7,8.9c-0.4,1.2-0.6,2.1-0.6,2.7c0,0.2,0,0.4,0.1,0.5c0.1,0.2,0.3,0.2,0.5,0.2
			c0.4,0,0.8-0.1,1.2-0.4c0.4-0.3,0.9-0.6,1.3-1c0.4-0.4,0.8-0.8,1.1-1.2c0.3-0.4,0.5-0.8,0.7-1l0.9,0.6c-0.4,0.7-0.8,1.4-1.4,2.1
			c-0.6,0.7-1.2,1.3-1.8,1.8c-0.6,0.5-1.3,0.9-1.9,1.3c-0.6,0.3-1.2,0.5-1.7,0.5c-0.8,0-1.3-0.2-1.6-0.5c-0.3-0.3-0.5-0.9-0.5-1.6
			c0-0.4,0.1-1,0.2-1.8c0.2-0.7,0.4-1.7,0.8-3l2.4-8h-2.8l0.4-1.5h2.8l1.7-5.6h3l-1.7,5.6h3.5l-0.5,1.5H187.2z"/>
		<path class="st3" d="M193.3,28c-0.6,0-1.1-0.2-1.6-0.6c-0.4-0.4-0.7-0.9-0.7-1.6c0-0.7,0.2-1.2,0.7-1.7c0.4-0.5,1-0.7,1.6-0.7
			c0.7,0,1.2,0.2,1.7,0.7c0.4,0.5,0.7,1,0.7,1.6c0,0.6-0.2,1.2-0.7,1.6C194.4,27.8,193.9,28,193.3,28z"/>
	</g>
</g>
</svg>
